<?xml version="1.0" encoding="UTF-8" standalone="no"?>
<!DOCTYPE svg PUBLIC "-//W3C//DTD SVG 1.1//EN" "http://www.w3.org/Graphics/SVG/1.1/DTD/svg11.dtd">
<svg width="100%" height="100%" viewBox="0 0 284 284" version="1.1" xmlns="http://www.w3.org/2000/svg" xmlns:xlink="http://www.w3.org/1999/xlink" xml:space="preserve" xmlns:serif="http://www.serif.com/" style="fill-rule:evenodd;clip-rule:evenodd;stroke-linejoin:round;stroke-miterlimit:2;">
    <g id="path0" transform="matrix(0.561816,0,0,0.561816,30.7695,-22.0114)">
        <path d="M234.277,43.706C233.178,44.64 232.646,45.488 232.363,46.752C232.148,47.716 231.644,49.246 231.243,50.152C230.841,51.058 230.202,53.15 229.821,54.8C229.441,56.45 228.801,58.52 228.399,59.4C227.997,60.28 227.448,61.99 227.18,63.2C226.912,64.41 226.418,65.94 226.083,66.6C225.747,67.26 225.057,69.308 224.549,71.151C224.041,72.994 223.383,74.884 223.086,75.351C222.79,75.818 222.311,77.277 222.024,78.594C221.736,79.911 220.983,82.281 220.35,83.861C219.718,85.441 219.2,87.115 219.2,87.583C219.2,88.05 218.846,89.126 218.413,89.974C217.98,90.823 217.249,92.926 216.787,94.649C216.325,96.372 215.791,97.97 215.6,98.2C215.41,98.43 214.897,99.903 214.462,101.475C214.026,103.046 213.405,104.932 213.082,105.666C212.222,107.617 211.685,109.223 211.381,110.754C211.234,111.499 210.709,112.939 210.216,113.954C209.724,114.969 209.093,116.867 208.816,118.171C208.538,119.474 207.997,121.274 207.613,122.171C207.23,123.067 206.709,124.989 206.456,126.443C206.203,127.897 205.637,130.49 205.198,132.207C203.116,140.347 204.314,145.206 208.952,147.445C210.079,147.989 212.023,149.011 213.274,149.717C214.525,150.423 216.325,151.431 217.274,151.958C218.223,152.484 219.54,153.311 220.2,153.794C220.86,154.277 221.985,154.903 222.7,155.185C223.415,155.466 224,155.83 224,155.993C224,156.155 225.035,156.866 226.3,157.572C229.653,159.444 231.674,160.67 232.746,161.483C233.266,161.877 234.182,162.47 234.781,162.8C235.911,163.423 240.287,166.296 240.995,166.88C241.218,167.064 242.66,168.005 244.2,168.971C245.74,169.937 247.54,171.167 248.2,171.704C248.86,172.242 249.85,172.914 250.4,173.199C250.95,173.484 251.969,174.186 252.664,174.759C253.36,175.331 254.591,176.25 255.4,176.8C256.209,177.35 257.44,178.268 258.136,178.84C258.831,179.412 260.66,180.744 262.2,181.8C263.74,182.855 265.475,184.187 266.056,184.759C268.199,186.87 276.474,192.783 277.299,192.792C277.736,192.797 278.356,192.088 278.954,190.9C279.48,189.855 280.753,187.38 281.783,185.4C282.813,183.42 283.935,180.99 284.275,180C284.616,179.01 285.033,178.11 285.202,178C285.623,177.727 286.8,174.846 286.8,174.09C286.8,173.753 287.254,172.518 287.809,171.345C288.364,170.172 288.928,168.625 289.063,167.906C289.197,167.188 289.746,165.27 290.282,163.645C290.818,162.02 291.513,159.05 291.826,157.045C292.14,155.04 292.712,152.41 293.098,151.2C294.271,147.523 294.14,123.689 292.925,119.8C292.444,118.26 291.929,116.01 291.779,114.8C291.629,113.59 291.093,111.494 290.588,110.143C290.082,108.792 289.386,106.586 289.042,105.241C288.697,103.896 288.141,102.377 287.806,101.866C287.471,101.355 286.911,99.971 286.56,98.791C286.21,97.611 285.491,96.079 284.962,95.385C284.433,94.692 284,93.943 284,93.722C284,92.907 280.197,85.804 277.5,81.582C276.675,80.291 276,79.078 276,78.887C276,78.696 275.55,78.117 275,77.6C274.45,77.083 273.998,76.467 273.996,76.23C273.994,75.994 273.364,75.01 272.596,74.044C271.828,73.078 271.2,72.15 271.2,71.982C271.2,71.813 270.615,70.942 269.9,70.045C269.185,69.149 267.79,67.4 266.8,66.159C265.81,64.918 264.814,63.699 264.587,63.451C264.36,63.203 263.752,62.401 263.237,61.669C262.722,60.936 261.918,59.927 261.45,59.427C260.983,58.926 259.868,57.725 258.973,56.758C256.482,54.067 247.603,46.4 246.978,46.4C246.849,46.4 245.992,45.886 245.072,45.258C244.152,44.63 242.68,43.888 241.8,43.61C240.92,43.331 240.029,42.945 239.82,42.752C238.864,41.867 235.826,42.39 234.277,43.706M102.951,52.014C102.045,52.138 100.997,52.546 100.623,52.92C100.249,53.294 99.798,53.6 99.622,53.6C98.535,53.6 93.986,59.395 92.905,62.155C92.551,63.06 91.943,64.216 91.553,64.725C91.164,65.234 90.63,66.302 90.368,67.098C90.105,67.894 89.375,69.358 88.745,70.351C88.115,71.344 87.6,72.409 87.6,72.717C87.6,73.025 87.249,73.769 86.821,74.371C86.392,74.973 85.658,76.441 85.189,77.633C84.72,78.825 84.106,80.07 83.824,80.4C83.541,80.73 83.016,81.885 82.657,82.967C82.297,84.049 81.751,85.219 81.443,85.567C81.135,85.915 80.583,87.1 80.217,88.2C79.48,90.41 78.218,93.225 76.158,97.257C75.411,98.719 74.797,100.249 74.793,100.657C74.789,101.066 74.252,102.3 73.6,103.4C72.948,104.5 72.411,105.686 72.407,106.036C72.403,106.386 71.879,107.736 71.243,109.036C70.606,110.336 69.866,112.12 69.599,113C69.331,113.88 68.78,115.182 68.374,115.893C67.967,116.604 67.375,118.061 67.058,119.13C66.74,120.199 66.102,121.815 65.64,122.721C65.178,123.627 64.8,124.55 64.8,124.772C64.8,124.994 64.323,126.217 63.741,127.488C63.158,128.76 62.275,130.97 61.778,132.4C59.229,139.737 58.272,142.351 57.57,143.896C57.147,144.828 56.8,145.923 56.8,146.328C56.8,146.733 56.359,147.936 55.819,149.002C55.28,150.068 54.627,151.853 54.37,152.97C54.113,154.086 53.492,155.99 52.991,157.2C52.489,158.41 51.889,160.32 51.656,161.444C51.423,162.568 50.845,164.458 50.372,165.644C49.898,166.83 49.191,169.24 48.8,171C48.409,172.76 47.805,175.01 47.459,176C47.112,176.99 46.612,179.15 46.347,180.8C46.083,182.45 45.447,185.148 44.933,186.795C44.154,189.296 44,190.662 44,195.069L44,200.347L45.7,201.558C46.635,202.224 48.21,203.206 49.2,203.741C50.19,204.276 51.343,205.093 51.762,205.557C52.181,206.021 52.684,206.4 52.88,206.4C53.076,206.4 54.596,207.345 56.258,208.5C57.92,209.655 59.847,210.96 60.54,211.4C64.486,213.906 72.914,220.602 80.361,227.149C81.77,228.387 83.279,229.652 83.715,229.96C85.507,231.227 98.611,244.856 100.868,247.8C101.66,248.833 105.581,253.634 109.526,258.4C110.163,259.17 110.908,260.226 111.182,260.747C111.455,261.268 112.516,262.773 113.539,264.09C115.432,266.527 115.972,267.329 118.33,271.21C119.062,272.415 120.052,273.971 120.53,274.669C121.009,275.367 121.94,276.866 122.6,278C123.26,279.134 124.197,280.633 124.683,281.331C125.168,282.029 125.841,283.23 126.178,284C126.515,284.77 126.979,285.67 127.207,286C127.436,286.33 128.171,287.68 128.841,289C129.511,290.32 130.872,292.93 131.866,294.8C132.86,296.67 133.956,298.999 134.3,299.976C134.645,300.952 135.348,302.372 135.863,303.131C136.379,303.891 136.801,304.802 136.801,305.156C136.802,305.51 137.138,306.349 137.547,307.02C137.956,307.691 138.697,309.401 139.193,310.82C139.688,312.239 140.41,313.94 140.796,314.6C141.182,315.26 141.619,316.34 141.768,317C141.916,317.66 142.459,319.1 142.974,320.2C143.489,321.3 144.128,323.01 144.393,324C144.658,324.99 145.287,326.7 145.791,327.8C147.116,330.694 150.014,339.627 150.008,340.8C150.005,341.35 150.334,342.343 150.739,343.008C151.144,343.672 151.7,345.202 151.974,346.408C152.248,347.613 152.831,349.59 153.27,350.8C153.708,352.01 154.345,353.9 154.684,355C155.85,358.78 160.305,368.499 161.193,369.2C161.332,369.31 161.707,369.783 162.027,370.251C163.554,372.492 170.588,379.2 171.41,379.2C171.557,379.2 172.165,379.548 172.761,379.972C174.385,381.129 181.094,383.863 183.6,384.39C184.81,384.644 187.15,385.228 188.8,385.687C190.499,386.159 194.545,386.748 198.132,387.044C201.614,387.331 204.779,387.666 205.164,387.789C205.922,388.029 218.231,389.428 224.4,389.975C226.49,390.16 228.92,390.587 229.8,390.924C230.68,391.261 233.198,391.75 235.396,392.01C239.781,392.528 243.13,393.195 246.2,394.162C247.3,394.508 248.92,394.797 249.8,394.804C250.68,394.812 252.193,395.177 253.161,395.617C254.13,396.056 256.74,396.785 258.961,397.236C261.183,397.687 264.29,398.494 265.867,399.028C267.444,399.563 269.065,400 269.469,400C269.873,400 271.461,400.456 272.998,401.014C274.535,401.571 276.964,402.296 278.396,402.624C279.828,402.952 281.616,403.509 282.369,403.862C283.122,404.215 284.832,404.754 286.169,405.06C287.506,405.367 289.68,406.043 291,406.564C292.32,407.084 294.357,407.73 295.526,407.999C296.695,408.267 298.135,408.728 298.726,409.022C299.317,409.315 301.33,409.911 303.2,410.346C305.07,410.78 307.68,411.488 309,411.918C311.5,412.733 314.768,413.586 320.2,414.841C324.836,415.913 339.792,415.897 343.6,414.816C347.363,413.748 351.976,412.105 352.954,411.484C353.42,411.188 354.835,410.533 356.1,410.027C357.365,409.521 358.4,408.975 358.4,408.814C358.4,408.653 359.133,408.191 360.029,407.787C360.925,407.383 361.87,406.771 362.129,406.426C362.388,406.082 363.14,405.534 363.8,405.21C364.46,404.885 365.54,404.201 366.2,403.689C366.86,403.177 368.21,402.135 369.2,401.374C380.636,392.574 386.289,384.701 386.701,377C386.914,373.011 384.417,369.815 377.95,365.8C377.242,365.36 375.748,364.424 374.631,363.72C373.514,363.016 371.94,362.075 371.133,361.629C370.326,361.182 368.86,360.273 367.875,359.609C366.89,358.944 365.917,358.4 365.713,358.4C365.509,358.4 364.635,357.865 363.771,357.211C362.907,356.557 362.044,356.017 361.854,356.011C361.663,356.005 360.673,355.415 359.654,354.7C357.621,353.274 356.781,352.725 355.05,351.689C353.881,350.989 350.934,348.914 348.4,347.007C343.36,343.215 341.968,342.108 339.678,340.076C331.94,333.208 325.778,325.999 322.566,320.057C322.014,319.036 321.313,317.75 321.009,317.2C319.689,314.817 317.6,310.086 317.6,309.482C317.6,309.12 317.172,307.873 316.65,306.712C315.494,304.144 314.951,302.358 314.623,300.05C314.486,299.088 314.042,297.558 313.636,296.65C313.23,295.743 312.776,294.1 312.627,293C312.207,289.902 311.256,285.395 310.758,284.137C310.51,283.512 310.056,281.595 309.749,279.879C309.442,278.162 308.946,276.362 308.648,275.879C308.35,275.395 307.795,273.67 307.413,272.044C307.032,270.418 306.376,268.528 305.955,267.844C305.534,267.16 305.012,265.95 304.794,265.155C304.577,264.36 303.971,263.08 303.448,262.309C302.926,261.539 302.273,260.209 301.998,259.354C301.724,258.499 301.258,257.523 300.965,257.185C300.671,256.847 300.059,255.73 299.604,254.703C299.15,253.676 298.532,252.59 298.232,252.289C297.932,251.989 297.214,250.811 296.636,249.672C296.059,248.532 295.422,247.6 295.22,247.6C295.019,247.6 294.749,247.268 294.62,246.863C294.408,246.196 293.599,245.008 290.124,240.267C288.43,237.955 286.972,236.311 282.8,232.009C280.71,229.853 278.163,227.214 277.141,226.145C274.162,223.028 265.882,215.309 262.962,212.925C259.138,209.802 254.903,206.3 253.816,205.361C253.165,204.799 252.265,204.144 251.816,203.906C251.367,203.669 250.73,203.182 250.4,202.824C250.07,202.467 248.63,201.318 247.2,200.273C242.677,196.965 241.154,195.817 240.462,195.195C240.092,194.862 239.162,194.148 238.395,193.608C237.628,193.068 236.758,192.391 236.462,192.104C236.166,191.816 235.356,191.291 234.662,190.935C233.968,190.58 232.837,189.819 232.148,189.245C231.459,188.67 229.973,187.57 228.845,186.8C227.717,186.03 226.183,184.95 225.435,184.4C224.688,183.85 223.488,183.04 222.769,182.6C219.787,180.775 216.737,178.797 213.735,176.741C212.819,176.113 211.943,175.6 211.788,175.6C211.634,175.6 210.649,174.97 209.6,174.2C208.551,173.43 207.527,172.8 207.324,172.8C207.121,172.8 206.335,172.34 205.578,171.778C204.82,171.217 203.48,170.409 202.6,169.985C201.72,169.56 199.92,168.593 198.6,167.837C197.28,167.08 195.12,165.899 193.8,165.212C192.48,164.525 190.779,163.617 190.02,163.193C189.261,162.769 188.181,162.239 187.62,162.014C181.541,159.578 179.927,157.245 178.201,148.4C177.836,146.53 177.254,144.375 176.907,143.61C176.561,142.846 176.037,140.838 175.744,139.148C175.451,137.458 174.775,134.664 174.243,132.938C173.71,131.212 173.069,128.565 172.818,127.056C172.567,125.548 172.102,123.917 171.785,123.433C171.468,122.949 171.028,121.601 170.807,120.437C170.398,118.28 167.461,111.966 166.005,110.116C165.562,109.553 165.2,108.932 165.2,108.736C165.2,108.357 163.198,105.26 161.208,102.561C160.544,101.659 160,100.753 160,100.546C160,100.339 159.467,99.547 158.816,98.785C158.165,98.023 157.625,97.197 157.616,96.949C157.607,96.701 157.306,96.254 156.946,95.955C156.586,95.656 155.887,94.779 155.393,94.006C154.899,93.233 154.092,92.15 153.601,91.6C153.11,91.05 152.415,90.15 152.058,89.6C151.131,88.174 149.135,85.548 148.199,84.523C147.759,84.042 146.68,82.718 145.8,81.581C142.46,77.267 138.852,73.271 134.626,69.207C132.22,66.893 129.7,64.455 129.026,63.79C128.351,63.124 127.17,62.143 126.4,61.609C125.63,61.075 124.91,60.52 124.8,60.375C124.69,60.23 124.06,59.835 123.399,59.497C122.739,59.159 121.856,58.503 121.437,58.041C121.018,57.578 120.469,57.2 120.216,57.2C119.963,57.2 118.912,56.665 117.881,56.01C116.849,55.356 114.899,54.458 113.548,54.014C112.197,53.571 110.861,53.017 110.58,52.783C109.902,52.221 105.029,51.729 102.951,52.014M36.87,225.316C36.635,225.599 36.275,226.575 36.071,227.484C35.866,228.393 35.352,229.646 34.927,230.269C34.502,230.891 33.915,232.377 33.623,233.57C33.33,234.764 32.77,236.294 32.379,236.97C31.988,237.647 31.402,239.1 31.077,240.2C30.752,241.3 30.017,243.126 29.443,244.258C28.869,245.39 28.399,246.56 28.398,246.858C28.398,247.156 27.858,248.48 27.2,249.8C26.542,251.12 26.002,252.471 26.002,252.801C26.001,253.132 25.37,254.701 24.6,256.289C23.83,257.876 23.2,259.546 23.2,260.001C23.2,260.455 22.77,261.676 22.244,262.714C21.718,263.752 20.975,265.861 20.593,267.401C20.211,268.94 19.626,270.735 19.293,271.389C18.96,272.043 18.438,273.663 18.132,274.989C17.827,276.315 17.236,278.3 16.82,279.4C16.403,280.5 15.852,282.48 15.596,283.8C15.341,285.12 14.697,287.553 14.166,289.207C13.635,290.861 13.2,292.783 13.2,293.477C13.2,294.585 12.808,296.643 11.196,304C10.51,307.134 10.016,311.31 10.008,314.056C10.004,315.517 9.64,318.462 9.2,320.6C8.022,326.326 7.994,355.209 9.16,361.137C9.578,363.262 10.018,366.62 10.138,368.6C10.257,370.58 10.828,374.36 11.406,377C11.984,379.64 12.644,382.97 12.873,384.4C13.101,385.83 13.576,387.81 13.927,388.8C14.279,389.79 15.053,392.4 15.646,394.6C16.93,399.353 18.116,402.848 19.664,406.432C20.289,407.879 20.8,409.319 20.8,409.632C20.8,409.944 21.318,411.28 21.951,412.6C25.845,420.719 26.995,423.022 27.243,423.2C27.397,423.31 28,424.39 28.584,425.6C30.264,429.08 31.839,431.955 32.477,432.707C32.801,433.088 33.358,434.039 33.714,434.821C34.071,435.603 34.731,436.576 35.181,436.983C35.632,437.391 36,437.904 36,438.124C36,438.344 36.495,439.164 37.1,439.946C37.705,440.727 38.56,441.938 39,442.637C40.509,445.033 41.908,447.001 42.953,448.2C43.528,448.86 43.999,449.532 44,449.693C44,449.854 44.441,450.484 44.98,451.093C45.52,451.702 46.697,453.1 47.598,454.2C48.498,455.3 49.58,456.613 50.002,457.117C50.424,457.621 51.178,458.611 51.676,459.317C52.175,460.023 52.947,460.981 53.391,461.447C53.836,461.913 56,464.229 58.2,466.593C60.4,468.957 63.059,471.726 64.11,472.746C65.16,473.766 68.314,476.85 71.118,479.6C75.68,484.074 79.136,487.214 81.952,489.445C82.888,490.186 85.43,492.284 87.8,494.269C89.711,495.869 96.714,501.066 100.006,503.326C100.779,503.857 101.656,504.586 101.955,504.946C102.254,505.306 102.708,505.6 102.964,505.6C103.22,505.6 104.053,506.133 104.815,506.784C105.577,507.435 106.337,507.975 106.505,507.984C106.672,507.993 107.864,508.72 109.153,509.6C110.442,510.48 111.645,511.2 111.827,511.2C112.008,511.2 112.616,511.618 113.178,512.13C114.358,513.203 123.651,518.8 124.254,518.8C124.476,518.8 125.365,519.335 126.229,519.989C127.093,520.643 128.042,521.183 128.338,521.189C128.634,521.195 129.374,521.554 129.982,521.987C131.481,523.054 142.768,528.8 143.366,528.8C143.629,528.8 144.68,529.331 145.704,529.98C146.727,530.629 148.331,531.366 149.268,531.618C150.205,531.871 151.407,532.419 151.938,532.837C152.47,533.255 153.646,533.792 154.552,534.03C155.458,534.269 157.1,534.884 158.2,535.397C159.3,535.91 160.92,536.542 161.8,536.8C162.68,537.059 164.12,537.589 165,537.979C167.376,539.031 174.004,540.845 174.455,540.566C174.896,540.294 174.582,538.412 173.793,536.6C173.506,535.94 173.051,534.14 172.782,532.6C172.512,531.06 172.046,529.314 171.746,528.719C168.78,522.854 168.789,482.544 171.757,475.44C172.101,474.617 172.645,472.442 172.965,470.607C173.285,468.772 173.886,466.58 174.299,465.736C174.713,464.891 175.289,463.21 175.579,462C175.869,460.79 176.426,459.165 176.817,458.388C177.207,457.611 177.826,455.946 178.192,454.688C178.557,453.43 179.102,452.155 179.402,451.855C179.702,451.555 180.254,450.373 180.629,449.229C181.003,448.084 181.548,446.909 181.841,446.616C182.133,446.324 182.84,445.12 183.412,443.942C184.898,440.877 186.294,438.355 187.142,437.2C187.546,436.65 188.197,435.579 188.59,434.82C188.983,434.06 189.533,433.21 189.813,432.93C190.093,432.65 190.738,431.741 191.248,430.911C191.757,430.08 192.585,428.952 193.087,428.404C193.589,427.856 194,427.226 194,427.004C194.001,426.149 203.165,416.685 205.293,415.342C208.519,413.305 205.096,410.802 199.08,410.799C196.644,410.798 186.344,409.251 185.808,408.807C185.558,408.599 183.903,408.177 182.131,407.87C180.359,407.562 178.119,406.944 177.154,406.497C176.19,406.049 174.59,405.459 173.6,405.186C170.115,404.224 161.73,400.053 159.491,398.17C158.857,397.636 158.2,397.2 158.031,397.2C157.861,397.2 157.29,396.821 156.761,396.358C156.233,395.894 155.08,395.009 154.2,394.389C149.327,390.96 141.884,381.692 138.075,374.313C136.787,371.817 135.445,369.33 135.094,368.787C134.742,368.244 134.335,367.26 134.189,366.6C134.044,365.94 133.501,364.5 132.984,363.4C132.467,362.3 131.848,360.522 131.609,359.449C131.37,358.377 130.815,356.711 130.376,355.748C129.938,354.785 129.416,353.143 129.217,352.099C128.816,349.991 128.565,349.169 127.784,347.395C127.492,346.733 126.948,344.848 126.575,343.208C126.201,341.568 125.573,339.59 125.177,338.813C124.782,338.036 124.152,336.14 123.777,334.6C123.402,333.06 122.784,331.35 122.403,330.8C122.022,330.25 121.591,329.143 121.445,328.339C121.298,327.536 120.766,326.096 120.262,325.139C119.758,324.183 119.102,322.5 118.804,321.4C118.505,320.3 117.753,318.388 117.131,317.151C116.509,315.913 116.001,314.743 116.002,314.551C116.004,314.181 113.514,308.907 112.532,307.2C112.215,306.65 111.692,305.57 111.368,304.8C111.045,304.03 110.568,303.04 110.309,302.6C110.05,302.16 109.308,300.72 108.66,299.4C108.013,298.08 107.353,296.91 107.194,296.8C107.035,296.69 106.417,295.7 105.82,294.6C105.223,293.5 104.197,291.61 103.538,290.4C102.879,289.19 101.994,287.828 101.57,287.374C101.147,286.92 100.8,286.349 100.8,286.105C100.8,285.861 100.375,285.153 99.856,284.531C99.337,283.909 98.592,282.77 98.2,282C97.809,281.23 97.377,280.51 97.242,280.4C96.978,280.186 93.795,275.992 92.8,274.548C91.409,272.529 87.325,267.267 85.855,265.6C81.766,260.965 77.625,256.511 75.85,254.838C74.777,253.827 72.133,251.29 69.974,249.2C67.814,247.11 65.272,244.708 64.324,243.862C63.376,243.016 62.198,241.965 61.708,241.527C61.217,241.089 59.687,239.857 58.308,238.789C56.928,237.721 55.442,236.521 55.005,236.124C53.591,234.837 45.92,229.2 45.583,229.2C45.404,229.2 45.015,228.958 44.72,228.663C44.187,228.13 41.469,226.259 39.843,225.306C38.745,224.662 37.408,224.667 36.87,225.316" style="fill:url(#_Radial1);"/>
    </g>
    <defs>
        <radialGradient id="_Radial1" cx="0" cy="0" r="1" gradientUnits="userSpaceOnUse" gradientTransform="matrix(378.413,0,0,498.281,8.30082,291.454)"><stop offset="0" style="stop-color:rgb(183,161,161);stop-opacity:1"/><stop offset="0.48" style="stop-color:rgb(198,152,152);stop-opacity:1"/><stop offset="1" style="stop-color:rgb(240,126,126);stop-opacity:1"/></radialGradient>
    </defs>
</svg>
